Coordinates
version=1
nRows=20
nColumns=34
inDegrees=yes

Units are S.I. units (second, meters, Newtons, ...)
If the header above contains a line with 'inDegrees', this indicates whether rotational values are in degrees (yes) or radians (no).

endheader
time	pelvis_tilt	pelvis_list	pelvis_rotation	pelvis_tx	pelvis_ty	pelvis_tz	hip_flexion_r	hip_adduction_r	hip_rotation_r	knee_angle_r	ankle_angle_r	subtalar_angle_r	mtp_angle_r	hip_flexion_l	hip_adduction_l	hip_rotation_l	knee_angle_l	ankle_angle_l	subtalar_angle_l	mtp_angle_l	lumbar_extension	lumbar_bending	lumbar_rotation	arm_flex_r	arm_add_r	arm_rot_r	elbow_flex_r	pro_sup_r	arm_flex_l	arm_add_l	arm_rot_l	elbow_flex_l	pro_sup_l
      1.20000000	      0.00177797	     -0.98235291	      3.43847434	     -0.94496328	      0.93034392	     -0.19577790	     -3.95336404	      6.25508022	     -3.09525214	     -7.21440690	      9.15649570	     -0.76893990	      1.41229732	     23.47436028	      0.91662828	      1.33977921	    -41.26063242	      1.59642041	     -8.34675876	     18.30000585	     -7.33049874	      4.39841762	      1.49223261	     -5.86612487	    -21.66049918	      3.48251378	     34.84770766	     90.00000000	     -5.40463465	    -15.42832143	     10.33289962	     29.61124457	     90.00000000
      1.21000000	      0.16669733	     -0.87532554	      3.32199093	     -0.93360029	      0.92956941	     -0.19553819	     -5.38438999	      6.22527203	     -2.81270668	     -6.36670161	      9.35392557	     -0.76534017	      1.43419521	     23.69534403	      1.00443065	      1.07232286	    -37.99100050	      1.35847924	     -8.87128730	     18.02726053	     -7.66785607	      4.24837697	      1.77116067	     -5.48360576	    -21.83399135	      3.59249358	     34.95659170	     90.00000000	     -5.32651687	    -15.36989735	     10.16311418	     29.36738249	     90.00000000
      1.22000000	      0.34191399	     -0.77629318	      3.32903989	     -0.92181754	      0.92852051	     -0.19540517	     -6.83498914	      6.22679447	     -2.58490664	     -5.55105835	      9.64433658	     -0.92030147	      1.51239001	     23.81775325	      1.10222165	      0.88158634	    -34.59829420	      0.89228027	     -9.17166006	     17.66660237	     -7.95973279	      4.10949373	      1.90897687	     -5.21966475	    -21.96550115	      3.65529333	     35.21825163	     90.00000000	     -5.38227389	    -15.36282956	     10.05525220	     29.30792800	     90.00000000
      1.23000000	      0.56108003	     -0.70234265	      3.29845435	     -0.91019822	      0.92730671	     -0.19544659	     -8.28379212	      6.22430408	     -2.27966886	     -4.85200824	      9.97847969	     -1.03843571	      1.61216465	     23.82936520	      1.19050656	      0.71162654	    -31.10961517	      0.54044365	     -9.61662683	     17.18603019	     -8.33586089	      4.02215633	      2.09092016	     -4.91212234	    -22.13030243	      3.67699147	     35.42377218	     90.00000000	     -5.35336613	    -15.28405395	      9.91048215	     29.19098676	     90.00000000
      1.24000000	      0.49976189	     -0.75070032	      3.37107631	     -0.89829188	      0.92548829	     -0.19552689	     -9.37325965	      6.35545134	     -2.07718990	     -4.25310332	     10.30994296	     -1.03062797	      1.68187646	     24.15575306	      1.17569563	      0.59069744	    -27.74319902	      0.45754521	     -9.41300724	     16.95019449	     -8.32135252	      4.06267367	      2.15137525	     -4.73323271	    -22.26018088	      3.66467072	     35.68094736	     90.00000000	     -5.45697519	    -15.26431496	      9.87433396	     29.18357705	     90.00000000
      1.25000000	      0.80080062	     -0.65029742	      3.30342691	     -0.88644309	      0.92414615	     -0.19541291	    -10.72844028	      6.32773121	     -2.13828412	     -3.89104910	     10.65741904	     -0.92419064	      1.78991890	     23.93988056	      1.23552344	      0.16585329	    -24.20681631	      0.40571059	     -9.04911334	     16.44958046	     -8.77133049	      3.92626413	      2.35227146	     -4.44044337	    -22.37084140	      3.73370517	     35.83351023	     90.00000000	     -5.34796334	    -15.20130117	      9.84622209	     28.85716263	     90.00000000
      1.26000000	      0.95409828	     -0.66352338	      3.34950792	     -0.87447639	      0.92243318	     -0.19555436	    -11.91809029	      6.43414567	     -2.07354803	     -3.54885266	     10.90236956	     -0.94811340	      1.84300079	     23.84738195	      1.25153865	     -0.00091046	    -20.76267373	      0.55115109	     -8.32033040	     15.87814928	     -9.02522872	      3.92683594	      2.42213564	     -4.19138280	    -22.49541765	      3.74428102	     35.95925886	     90.00000000	     -5.28397640	    -15.15095199	      9.93370055	     28.62461767	     90.00000000
      1.27000000	      0.71416540	     -0.86681959	      3.39523287	     -0.86258469	      0.91988482	     -0.19586428	    -12.49100298	      6.69596807	     -2.04056223	     -3.52921295	     11.27473096	     -0.96597751	      1.90394859	     24.26502776	      1.14246928	     -0.08126539	    -17.65755856	      0.66210393	     -7.78376078	     15.78577583	     -8.80207361	      4.15341843	      2.46883046	     -4.06218911	    -22.63140645	      3.69677705	     36.19876684	     90.00000000	     -5.42691018	    -15.08152768	      9.91668444	     28.69660922	     90.00000000
      1.28000000	      0.99483151	     -0.71130933	      3.29447984	     -0.85031256	      0.91831866	     -0.19578009	    -13.76202962	      6.59882982	     -1.87845278	     -3.33688212	     11.68494451	     -1.12516845	      2.11829469	     23.86313104	      1.24336822	     -0.59234757	    -14.37554534	      0.68447776	     -5.75730093	     15.37971790	     -9.18709466	      3.91640856	      2.66331306	     -3.84774120	    -22.67730002	      3.76952869	     36.27844224	     90.00000000	     -5.19385893	    -14.96164360	      9.92996868	     27.98641414	     90.00000000
      1.29000000	      0.97113132	     -0.84634948	      3.28123920	     -0.83814433	      0.91616147	     -0.19605364	    -14.47866841	      6.74791564	     -2.01626214	     -3.56205918	     12.05298138	     -0.66042749	      3.06507574	     23.96318651	      1.15785538	     -0.89639763	    -11.69734349	      1.33138296	     -3.72115086	     13.29463633	     -9.19852938	      4.04953893	      2.81877888	     -3.78038263	    -22.79038886	      3.70078123	     36.45303000	     90.00000000	     -5.05782739	    -14.99567716	     10.91968191	     27.65254930	     90.00000000
      1.30000000	      0.81090092	     -1.04286029	      3.25963414	     -0.82593891	      0.91384640	     -0.19658571	    -15.05275122	      6.93105730	     -1.88217175	     -3.77918367	     12.28026310	     -0.59464889	      3.13021249	     24.12628314	      1.08972643	     -0.86357494	     -9.16265594	      1.34979614	     -2.80538887	     13.26663374	     -9.05616926	      4.25725545	      2.91424023	     -3.70158293	    -22.92270358	      3.69447189	     36.57585939	     90.00000000	     -5.12312342	    -14.84319248	     10.81111819	     27.58940337	     90.00000000
      1.31000000	      0.98880848	     -1.08008783	      3.11478969	     -0.81344919	      0.91213624	     -0.19678668	    -15.95111438	      6.93233461	     -1.84048060	     -4.09934529	     12.58123113	     -0.22925502	      3.33298254	     23.92769706	      1.05166951	     -1.66645216	     -7.05830041	      1.28800768	     -0.33036716	     13.28619672	     -9.27565434	      4.24646407	      3.06985648	     -3.52062852	    -22.99070908	      3.86290531	     36.52647906	     90.00000000	     -4.93269605	    -14.65475069	     10.66686064	     26.91838507	     90.00000000
      1.32000000	      0.96900671	     -1.22375858	      3.02316328	     -0.80071620	      0.91017822	     -0.19728880	    -16.57627952	      7.00775930	     -1.84860688	     -4.56752481	     12.87064042	      0.19829610	      3.61975756	     24.00920439	      0.97462740	     -2.39699961	     -5.51690618	      1.30823642	      2.04639630	     13.33864363	     -9.21938877	      4.38530403	      3.12420058	     -3.43106637	    -23.07595892	      4.02562258	     36.46669556	     90.00000000	     -4.96766343	    -14.53247680	     10.88786641	     26.59407791	     90.00000000
      1.33000000	      0.91026994	     -1.36940861	      2.85284676	     -0.78792408	      0.90836644	     -0.19792457	    -17.09783134	      7.03327338	     -1.84268985	     -5.14116461	     13.05754039	      0.74091667	      4.04741969	     24.17809895	      0.89439095	     -3.09248274	     -4.56199571	      1.27810149	      4.31302512	     13.38011332	     -9.12943678	      4.52712787	      3.30082248	     -3.40902352	    -23.20388749	      4.17183923	     36.38761330	     90.00000000	     -4.93833133	    -14.39197320	     11.19721256	     26.24449187	     90.00000000
      1.34000000	      0.82472204	     -1.50987261	      2.79387299	     -0.77485281	      0.90659180	     -0.19874896	    -17.58052655	      7.07762893	     -1.74246956	     -5.76483709	     13.07579326	      0.82572458	      4.10316178	     24.40052510	      0.91842281	     -3.15262209	     -4.19950323	      1.24818807	      4.59587948	     13.37603417	     -8.96943126	      4.67548036	      3.29631959	     -3.51742326	    -23.30802460	      4.13952945	     36.52728202	     90.00000000	     -5.14597759	    -14.29062948	     11.17049038	     26.41522219	     90.00000000
      1.35000000	      1.07400997	     -1.47517632	      2.51941773	     -0.76148472	      0.90574507	     -0.19909747	    -18.36251890	      6.87277764	     -1.51556086	     -6.50876655	     12.93275016	      1.45159798	      4.60059964	     24.25480282	      0.91349189	     -3.85453296	     -4.40587462	      1.24973812	      6.54885343	     13.48940513	     -9.18547317	      4.57473626	      3.53233650	     -3.44665100	    -23.22001995	      4.23478644	     36.12266263	     90.00000000	     -4.82833770	    -14.00205730	     11.36242746	     25.24291434	     90.00000000
      1.36000000	      1.07239454	     -1.51255974	      2.38254026	     -0.74792152	      0.90443943	     -0.19949147	    -18.79707478	      6.79307985	     -1.44017377	     -7.42580954	     12.80162787	      1.49747784	      4.61808301	     24.43496672	      0.93951447	     -3.70074658	     -5.23911706	      1.18190535	      6.54462068	     13.47877218	     -9.08319855	      4.52923010	      3.54531870	     -3.64879921	    -23.18909392	      4.21247827	     36.37646139	     90.00000000	     -5.12427752	    -14.07847002	     11.31786314	     25.60785276	     90.00000000
      1.37000000	      1.07897386	     -1.49961595	      2.24244512	     -0.73395711	      0.90310287	     -0.19999879	    -19.18914135	      6.58845236	     -1.63419562	     -8.43740207	     12.60803216	      2.73949209	      5.35130514	     24.70906238	      1.00999675	     -3.66006996	     -6.78612830	      1.58805903	      6.63427460	     13.37268845	     -8.92379278	      4.42995369	      3.66844951	     -3.80227910	    -23.03831397	      4.13613743	     35.76683616	     90.00000000	     -5.06841248	    -14.04618572	     12.01105441	     25.02305908	     90.00000000
      1.38000000	      1.13328154	     -1.47053930	      2.18505145	     -0.71960439	      0.90187075	     -0.20057452	    -19.65038452	      6.42379803	     -1.69155555	     -9.43511349	     12.22729435	      3.17441167	      5.63995860	     24.85932794	      1.14926755	     -3.51417053	     -8.55353400	      1.58457679	      6.19971814	     13.27012120	     -8.77078045	      4.31430205	      3.67354669	     -4.22799544	    -22.96948084	      4.11030516	     35.83397665	     90.00000000	     -5.27300033	    -14.04477604	     12.15267376	     25.02410043	     90.00000000
      1.39000000	      1.08964712	     -1.29085567	      2.13731617	     -0.70487778	      0.90053124	     -0.20150957	    -19.77036389	      6.01152170	     -2.24958433	    -10.92125763	     11.96591189	      4.50262253	      7.13082868	     24.81121813	      1.54540333	     -2.62825582	    -10.09237397	      1.48942375	      4.92232889	     12.84401201	     -8.41033895	      4.05924401	      3.61818943	     -4.64001503	    -22.79976198	      3.88293378	     35.50129026	     90.00000000	     -5.34288921	    -14.09238727	     13.01717684	     24.48953722	     90.00000000
